<?xml version="1.0" encoding="UTF-8"?> <svg xmlns="http://www.w3.org/2000/svg" id="Ebene_1" data-name="Ebene 1" width="1238.15" height="473.81" viewBox="0 0 1238.15 473.81"><defs><style> .cls-1 { fill: #ef7d00; } .cls-2 { fill: #9293a1; } </style></defs><g><path class="cls-1" d="M75.16,334.74c-5.1,0-15.76,1.65-15.76-7.14S66.82,301.79,71,295.74C84.89,272.68,107.61,259,131.25,259c14.83,0,30.13,4.39,40.33,17,6.49,8.24,12,20.87,12,32.41,0,13.18-6.95,19.22-17.15,22-13.44,3.85-39.4,4.4-53.78,4.4Zm140,13.18c4.64,0,5.56-4.94,5.56-9.33,0-18.13-7-41.75-16.22-55.48-16.22-23.62-41.72-34.05-66.75-34.05-31.52,0-60.26,12.63-83.44,36.8-24.57,25.26-33.37,54.37-33.37,91.72,0,68.66,45,126.32,105.68,126.32,28.74,0,51.46-8.79,73.24-30.75,3.25-3.29,18.08-18.12,18.08-24.72,0-2.19-1.39-4.39-3.71-4.39-6,0-23.17,35.7-68.6,35.7-56.09,0-89.93-53.28-89.93-114.79,0-18.13,4.63-17,19-17Z" transform="translate(-20.93 -30.1)"></path><path class="cls-1" d="M427,427c0,11,1.39,18.67-4.64,27.46-13,18.13-35.69,25.82-54.69,25.82-51.46,0-80.2-56.57-80.2-111.5S317.6,264.44,368.12,259c15.3-1.65,36.63,4.94,47.75,17.57C427.93,289.7,427,310.57,427,327.6V427Zm32-305.92c0-4.4.46-8.79-4.17-8.79-3.24,0-7.42,3.84-9.74,6-11.12,8.79-28.73,14.29-41.71,17-2.78.55-6.5,2.19-6.5,6,0,7.14,7.89,5.49,12.06,5.49,22.25,0,18.08,24.17,18.08,44.49v52.18c0,3.29,1.85,20.32-3.71,20.32-2.32,0-6.49-2.2-8.81-3.3-15.3-7.14-32.45-10.43-49.6-11.53-29.67-1.65-58.41,15.93-79.27,39.55S253.17,342.43,253.17,377c0,65.91,41.25,126.87,100.12,126.87,37.55,0,64.44-36.79,71.39-36.79,4.64,0,4.64,15.37,4.64,17.57.46,3.3,0,15.38,5.09,15.38,2.79,0,7.42-3.29,9.73-4.95l37.56-17c5.55-2.19,7.41-2.19,7.88-9.34l.46-7.13c.46-2.2.93-6.59-2.32-6.59-4.17,0-12.05,19.22-21.78,19.22-8.81,0-7-22-7-28V121.09Z" transform="translate(-20.93 -30.1)"></path><path class="cls-1" d="M576.26,441.29c0,23.62-4.17,42.29,20.86,45,4.64.55,13,0,13,7.14,0,4.39-2.31,6-5.56,6-14.83,0-29.67-2.2-43.58-2.2-14.82,0-29.67,2.2-44,2.2-3.25,0-6.49-1.1-6.49-5.49,0-8.24,7.88-7.14,13-7.69,25-2.75,20.87-21.42,20.87-45V338c0-7.69.46-29.1-4.64-35.15-2.78-3.84-9.73-4.39-13.44-4.39h-6c-2.77,0-5.56-1.1-5.56-4.39,0-6.59,6.49-7.69,10.66-9.34,11.12-3.84,31.06-18.13,38.48-28.56,2.32-2.75,4.63-7.14,8.34-7.14,4.64,0,4.17,4.95,4.17,8.79V441.29Z" transform="translate(-20.93 -30.1)"></path><path class="cls-1" d="M809,319.36c-14.83,0-23.18-60.41-60.73-60.41-16.22,0-34.76,10.43-46.81,22.51-21.32,22-33.38,55.48-33.38,89,0,56,34.77,113.14,86.69,113.14A69.16,69.16,0,0,0,808,459.42c1.39-1.65,4.65-6.59,7-6.59,1.86,0,3.25,2.2,3.25,4.39,0,5.49-10.67,16.48-13.91,19.77a95.25,95.25,0,0,1-67.22,26.91c-57,0-103.83-56-103.83-122.48,0-74.14,58.41-132.36,120.52-132.36,17.61,0,42.18,6,57,18.13,6,4.94,3.7,17,3.7,24.16,0,4.39,2.79,28-5.56,28Z" transform="translate(-20.93 -30.1)"></path><path class="cls-1" d="M962.86,493.47c-52.38,0-81.59-67.56-81.59-121.93,0-56,28.74-112,79.73-112,53.77,0,80.2,63.17,80.2,118.64,0,52.17-28.27,115.34-78.34,115.34Zm-1.39,10.43c62.12,0,115-54.37,115-129.61,0-35.16-13.46-70.85-36.17-93.37-22.25-22.52-50.06-31.86-78.8-31.86-31.06,0-61.19,11-83.44,36.8-19.93,22.52-31.52,55.47-31.52,88.43,0,75.24,52.37,129.61,115,129.61Z" transform="translate(-20.93 -30.1)"></path><path class="cls-1" d="M1107,430.86c.47-4.4.93-12.09,6-12.09,16.69,0-2.33,75.25,60.72,75.25,27.35,0,56.55-18.68,56.55-53.83,0-31.85-22.25-43.94-44.5-52.73-28.74-11-70.92-24.71-70.92-69.19,0-21.43,9.73-38.45,24.57-51.08,16.23-13.74,35.23-18.13,54.69-18.13,12.06,0,36.62,3.84,47.74,9.34,7.89,4.39,5.11,16.48,5.11,24.71,0,3.3,3.24,26.91-4.64,26.91-11.59,0-6.49-51.62-56.55-51.62-19,0-42.65,15.38-42.65,40.64,0,64.26,115.89,35.15,115.89,124.68,0,52.72-48.67,80.18-88.07,80.18-16.23,0-43.58-7.13-58.87-16.47-7.42-3.85-6.49-11-6.49-19.77l1.38-36.8Z" transform="translate(-20.93 -30.1)"></path><polygon class="cls-2" points="688.26 83.68 574.99 167.36 574.99 0 688.26 83.68 688.26 83.68"></polygon></g></svg> 